<?xml version="1.0" encoding="UTF-8"?>
<svg width="100px" height="100px" viewBox="0 0 100 100" version="1.1" xmlns="http://www.w3.org/2000/svg" xmlns:xlink="http://www.w3.org/1999/xlink">
    <!-- Generator: Sketch 41.2 (35397) - http://www.bohemiancoding.com/sketch -->
    <title>docIcon</title>
    <desc>Created with Sketch.</desc>
    <defs>
    <g id="Page-1" stroke="none" stroke-width="1" fill="none" fill-rule="evenodd">
        <g id="docIcon" fill="#000000">
            <path d="M84.3199853,0 L16.5294118,0 C14.0280441,0 12,2.03522727 12,4.54545455 L12,94.5443182 C12,97.0545455 14.0280441,99.0897727 16.5294118,99.0897727 L84.3199853,99.0897727 C86.8213529,99.0897727 88.8493971,97.0545455 88.8493971,94.5443182 L88.8493971,4.54545455 C88.8493971,2.03522727 86.8213529,0 84.3199853,0 Z M79.7905735,89.9988636 L21.0588235,89.9988636 L21.0588235,9.09090909 L79.7905735,9.09090909 L79.7905735,89.9988636 Z" id="Shape"></path>
            <path d="M35.7001471,64.5090909 L49.05625,64.5090909 C51.2450882,64.5090909 53.0194853,62.7272727 53.0194853,60.5318182 C53.0194853,58.3329545 51.2450882,56.5545455 49.05625,56.5545455 L35.7001471,56.5545455 C33.5113088,56.5545455 31.7369118,58.3329545 31.7369118,60.5318182 C31.7369118,62.7261364 33.5113088,64.5090909 35.7001471,64.5090909 Z" id="Shape"></path>
            <path d="M36.3274706,46.6568182 L63.2208529,46.6568182 C65.4108235,46.6568182 67.1840882,44.8761364 67.1840882,42.6795455 C67.1840882,40.4829545 65.4108235,38.7022727 63.2208529,38.7022727 L36.3274706,38.7022727 C34.1386324,38.7022727 32.3642353,40.4829545 32.3642353,42.6795455 C32.3642353,44.8761364 34.1397647,46.6568182 36.3274706,46.6568182 Z" id="Shape"></path>
            <path d="M36.3274706,28.8045455 L63.2208529,28.8045455 C65.4108235,28.8045455 67.1840882,27.0238636 67.1840882,24.8272727 C67.1840882,22.6306818 65.4108235,20.85 63.2208529,20.85 L36.3274706,20.85 C34.1386324,20.85 32.3642353,22.6306818 32.3642353,24.8272727 C32.3642353,27.0238636 34.1397647,28.8045455 36.3274706,28.8045455 Z" id="Shape"></path>
            <path d="M60.2699412,57.7204545 C59.5225882,58.4579545 59.1036176,59.4829545 59.1036176,60.5295455 C59.1036176,61.575 59.5225882,62.5943182 60.2699412,63.3465909 C61.0037059,64.0852273 62.0250882,64.5068182 63.0668529,64.5068182 C64.1086176,64.5068182 65.1266029,64.0852273 65.8637647,63.3465909 C66.6111176,62.5965909 67.0300882,61.575 67.0300882,60.5295455 C67.0300882,59.4829545 66.6111176,58.4613636 65.8637647,57.7204545 C64.37925,56.2318182 61.742,56.2431818 60.2699412,57.7204545 Z" id="Shape"></path>
        </g>
    </g>
    </defs>
</svg>