<?xml version="1.0" encoding="UTF-8"?>
<svg width="100px" height="100px" viewBox="0 0 100 100" version="1.1" xmlns="http://www.w3.org/2000/svg" xmlns:xlink="http://www.w3.org/1999/xlink">
    <!-- Generator: Sketch 41.2 (35397) - http://www.bohemiancoding.com/sketch -->
    <title>linkedInIcon</title>
    <desc>Created with Sketch.</desc>
    <defs></defs>
    <g id="Page-1" stroke="none" stroke-width="1" fill="none" fill-rule="evenodd">
        <g id="linkedInIcon" fill="#000000">
            <path d="M0,30.7691187 L23.0769604,30.7691187 L23.0769604,100 L0,100 L0,30.7691187 Z M34.6154407,30.7691187 L57.6924011,30.7691187 L57.6924011,39.2082416 C65.020915,34.8228904 73.7058683,30.7691187 80.7693616,30.7691187 C96.1539209,30.7691187 100,46.1539209 100,46.1539209 L100,100 L76.9230396,100 L76.9230396,53.8460791 C73.9412533,44.9009634 66.3363018,45.2021785 57.6924011,52.9577376 L57.6924011,100 L34.6154407,100 L34.6154407,30.7691187 Z M11.5384802,0 C17.9108792,0 23.0769604,5.16583833 23.0769604,11.5384802 C23.0769604,17.9108792 17.9108792,23.0769604 11.5384802,23.0769604 C5.16583833,23.0769604 0,17.9108792 0,11.5384802 C0,5.16583833 5.16583833,0 11.5384802,0 Z" id="Shape"></path>
        </g>
    </g>
</svg>