<?xml version="1.0" encoding="UTF-8"?>


<svg xmlns="http://www.w3.org/2000/svg">			
	<symbol id="linkedin" viewBox="0 0 100 100">
		<path d="M0 30.8L23.1 30.8 23.1 100 0 100 0 30.8ZM34.6 30.8L57.7 30.8 57.7 39.2C65 34.8 73.7 30.8 80.8 30.8 96.2 30.8 100 46.2 100 46.2L100 100 76.9 100 76.9 53.8C73.9 44.9 66.3 45.2 57.7 53L57.7 100 34.6 100 34.6 30.8ZM11.5 0C17.9 0 23.1 5.2 23.1 11.5 23.1 17.9 17.9 23.1 11.5 23.1 5.2 23.1 0 17.9 0 11.5 0 5.2 5.2 0 11.5 0Z"/>
	</symbol>

	<symbol id="doc-icon" viewBox="0 0 100 100">
		<path d="M84.3199853,0 L16.5294118,0 C14.0280441,0 12,2.03522727 12,4.54545455 L12,94.5443182 C12,97.0545455 14.0280441,99.0897727 16.5294118,99.0897727 L84.3199853,99.0897727 C86.8213529,99.0897727 88.8493971,97.0545455 88.8493971,94.5443182 L88.8493971,4.54545455 C88.8493971,2.03522727 86.8213529,0 84.3199853,0 Z M79.7905735,89.9988636 L21.0588235,89.9988636 L21.0588235,9.09090909 L79.7905735,9.09090909 L79.7905735,89.9988636 Z" id="Shape"></path>
		<path d="M35.7001471,64.5090909 L49.05625,64.5090909 C51.2450882,64.5090909 53.0194853,62.7272727 53.0194853,60.5318182 C53.0194853,58.3329545 51.2450882,56.5545455 49.05625,56.5545455 L35.7001471,56.5545455 C33.5113088,56.5545455 31.7369118,58.3329545 31.7369118,60.5318182 C31.7369118,62.7261364 33.5113088,64.5090909 35.7001471,64.5090909 Z" id="Shape"></path>
		<path d="M36.3274706,46.6568182 L63.2208529,46.6568182 C65.4108235,46.6568182 67.1840882,44.8761364 67.1840882,42.6795455 C67.1840882,40.4829545 65.4108235,38.7022727 63.2208529,38.7022727 L36.3274706,38.7022727 C34.1386324,38.7022727 32.3642353,40.4829545 32.3642353,42.6795455 C32.3642353,44.8761364 34.1397647,46.6568182 36.3274706,46.6568182 Z" id="Shape"></path>
		<path d="M36.3274706,28.8045455 L63.2208529,28.8045455 C65.4108235,28.8045455 67.1840882,27.0238636 67.1840882,24.8272727 C67.1840882,22.6306818 65.4108235,20.85 63.2208529,20.85 L36.3274706,20.85 C34.1386324,20.85 32.3642353,22.6306818 32.3642353,24.8272727 C32.3642353,27.0238636 34.1397647,28.8045455 36.3274706,28.8045455 Z" id="Shape"></path>
		<path d="M60.2699412,57.7204545 C59.5225882,58.4579545 59.1036176,59.4829545 59.1036176,60.5295455 C59.1036176,61.575 59.5225882,62.5943182 60.2699412,63.3465909 C61.0037059,64.0852273 62.0250882,64.5068182 63.0668529,64.5068182 C64.1086176,64.5068182 65.1266029,64.0852273 65.8637647,63.3465909 C66.6111176,62.5965909 67.0300882,61.575 67.0300882,60.5295455 C67.0300882,59.4829545 66.6111176,58.4613636 65.8637647,57.7204545 C64.37925,56.2318182 61.742,56.2431818 60.2699412,57.7204545 Z" id="Shape"></path>
	</symbol>


	<symbol id="arrow-right-icon" viewBox="0 0 41 24">
		<path d="M0,12.0051432 C0,12.2245875 0.048,12.4440317 0.133714286,12.6531895 C0.216,12.8554897 0.339428571,13.0372169 0.490285714,13.1915137 C0.493714286,13.1983713 0.497142857,13.2052289 0.500571429,13.2120866 L10.7862857,23.4985356 C11.4548571,24.1671548 12.5417143,24.1671548 13.2102857,23.4985356 C13.8788571,22.8299164 13.8788571,21.7429816 13.2102857,21.0743625 L5.85257143,13.7126938 L39.4285714,13.7126938 C40.3748571,13.7126938 41.1428571,12.9446389 41.1428571,11.9982856 C41.1428571,11.0519323 40.3748571,10.2838774 39.4285714,10.2838774 L5.85257143,10.2838774 L13.2102857,2.92563755 C13.8788571,2.25701836 13.8788571,1.17008358 13.2102857,0.50146439 C12.5417143,-0.167154797 11.4548571,-0.167154797 10.7862857,0.50146439 L0.500571429,10.7879134 C0.497142857,10.7913422 0.493714286,10.8016287 0.490285714,10.8050575 C0.339428571,10.9593542 0.216,11.1410815 0.133714286,11.3433817 C0.0445714286,11.5525395 0,11.7754125 0,11.9982856 L0,11.9982856 L0,12.0051432 Z" id="Shape" transform="translate(20.571429, 12.000000) rotate(-180.000000) translate(-20.571429, -12.000000) "></path>
	</symbol>

	<symbol id="arrow-left-icon" viewBox="0 0 41 24">
		<path d="M0,12.0051432 C0,12.2245875 0.048,12.4440317 0.133714286,12.6531895 C0.216,12.8554897 0.339428571,13.0372169 0.490285714,13.1915137 C0.493714286,13.1983713 0.497142857,13.2052289 0.500571429,13.2120866 L10.7862857,23.4985356 C11.4548571,24.1671548 12.5417143,24.1671548 13.2102857,23.4985356 C13.8788571,22.8299164 13.8788571,21.7429816 13.2102857,21.0743625 L5.85257143,13.7126938 L39.4285714,13.7126938 C40.3748571,13.7126938 41.1428571,12.9446389 41.1428571,11.9982856 C41.1428571,11.0519323 40.3748571,10.2838774 39.4285714,10.2838774 L5.85257143,10.2838774 L13.2102857,2.92563755 C13.8788571,2.25701836 13.8788571,1.17008358 13.2102857,0.50146439 C12.5417143,-0.167154797 11.4548571,-0.167154797 10.7862857,0.50146439 L0.500571429,10.7879134 C0.497142857,10.7913422 0.493714286,10.8016287 0.490285714,10.8050575 C0.339428571,10.9593542 0.216,11.1410815 0.133714286,11.3433817 C0.0445714286,11.5525395 0,11.7754125 0,11.9982856 L0,11.9982856 L0,12.0051432 Z" id="Shape" transform="translate(20.571429, 12.000000) scale(-1, 1) rotate(-180.000000) translate(-20.571429, -12.000000) "></path>
	</symbol>


	<symbol id="circle" viewBox="0 0 100 100">
	   <circle cx="50" cy="50" r="40"/>
	</symbol>


	<symbol id="home-icon" viewBox="0 0 100 100">
	    <path d="M52.3774189,8.83611926 C51.1474213,7.72521317 49.2829806,7.72074722 48.0474275,8.82607086 L1.08641013,50.8741452 C-0.25136498,52.0721374 -0.370253631,54.1342917 0.821966211,55.4796604 C1.46307604,56.2031449 2.35307427,56.5715861 3.24751693,56.5715861 C4.01529317,56.5715861 4.78751385,56.2991629 5.40640151,55.7453846 L8.15861823,53.280178 L8.15861823,89.8250804 C8.15861823,91.026422 9.12750519,92 10.3230584,92 L89.6762333,92 C90.8717865,92 91.8406734,91.026422 91.8406734,89.8250804 L91.8406734,53.2578482 L94.5828902,55.7353362 C95.9151097,56.9389109 97.9673279,56.8306115 99.1684366,55.4908252 C100.366212,54.151039 100.257323,52.0877682 98.9239926,50.8841936 L52.3774189,8.83611926 Z M87.5117932,87.6501607 L64.7429497,87.6501607 L64.7429497,62.3706275 C64.7429497,61.7699567 64.2585063,61.2831677 63.6607297,61.2831677 L36.338562,61.2831677 C35.7407854,61.2831677 35.2563419,61.7699567 35.2563419,62.3706275 L35.2563419,87.6512772 L12.4863874,87.6512772 L12.4863874,49.4037298 L50.1963121,15.6388838 L87.5117932,49.3467889 L87.5117932,87.6501607 Z" id="Shape">
	    </path>
		    
	</symbol>

</svg>